<svg xmlns="http://www.w3.org/2000/svg" width="219.126" height="83.797" viewBox="0 0 219.126 83.797">
  <g id="navioo" transform="translate(0 676)">
    <path id="Caminho_26" data-name="Caminho 26" d="M43.477-674.949c0,.585-.024,2.024-.055,3.209l-.047,2.15-.229.047c-.206.04-.221.071-.221.411,0,.3.032.38.182.443s.174.15.2.537l.024.466-.466-.024c-.458-.032-.885.126-.885.332,0,.047.213.174.482.292.458.2.474.213.435.435a3.221,3.221,0,0,0-.047.49v.261l-.514.055-.514.055v.6l-.332-.04a13.872,13.872,0,0,0-1.842-.111c-.1.095-.032.474.1.514.071.016.4.111.727.206a3.73,3.73,0,0,1,.648.229,4.207,4.207,0,0,1,.206.83c.229,1.162.047,1.6-.672,1.652-.206.016-.213,0-.308-.6a5.382,5.382,0,0,0-.126-.648c-.016-.008-.364-.063-.775-.111a1.729,1.729,0,0,0-1.162.087c-.458.19-.387.039-.68,1.486l-.1.514-3.644.024-3.644.016-.047.245a3.187,3.187,0,0,0-.047.427c0,.206-.324.166,3.992.482,1.652.119,3.036.237,3.067.269a47.6,47.6,0,0,1-1.028,5.257c-.15.735-.292,1.36-.308,1.375-.032.032-2.877-.134-3.249-.2-.19-.031-.261-.079-.261-.19,0-.087-.047-.158-.111-.158s-1.723-.1-3.692-.229c-9.075-.593-10.205-.656-10.269-.593a1.036,1.036,0,0,0-.111.229c-.04.142.055.2.79.466s.83.332.79.474c-.016.095-.34,1.589-.719,3.328s-.711,3.233-.743,3.328c-.063.142-.166.174-.735.221-.356.032-.846.071-1.075.1l-.419.047.024.364.024.364,1.138.261c.632.142,1.154.261,1.162.277s-.451,1.81-.482,1.85c-.008.016-.656.1-1.439.2l-1.439.174-.087.68c-.119.885-.142.949-.316.949-.158,0-.229-.19-.5-1.265l-.1-.435-.4-.071c-.213-.032-.427-.079-.474-.087a1.321,1.321,0,0,1-.2-.553l-.1-.522-.4.024-.4.024-.111.569-.119.569-.4.047-.4.055-.316.972-.308.98-.364.039c-.2.024-.814.087-1.383.126s-1.17.1-1.352.126l-.324.04.182,1.075a3.941,3.941,0,0,1,.111,1.4c-.04.182-.182,1.107-.316,2.063s-.253,1.858-.277,2l-.047.253H3.32c-1.826,0-3.32.016-3.32.04,0,.119,1.059,4.277,1.1,4.324a15.261,15.261,0,0,0,2.775.569c.372.032,2.126.174,3.913.332,6.3.53,10.1.854,19.6,1.652,1.826.15,4.585.387,6.126.514,8.419.711,8.577.727,18.245,1.542,7.154.609,8.039.672,10.253.791l23.233,1.225c1.644.095,3,.158,3.012.142s.348-.577.751-1.249a74.7,74.7,0,0,1,7.28-9.13c2.285-2.514,4.972-5.692,4.885-5.755-.032-.024-6.846.032-15.446.134-2.174.024-4.7.071-5.62.095l-1.668.055-.119-.348-.119-.348-.632-.024-.64-.024-.206-.49c-.917-2.19-1.059-2.585-.972-2.648a27.894,27.894,0,0,1,2.822-.253,16.688,16.688,0,0,0,2.838-.277c.071-.071.087-.19.055-.387l-.055-.285-.648.04c-.885.055-4.443.2-5.028.2-.458,0-.474-.008-.617-.292-.119-.245-.245-.332-.854-.593l-.711-.308-1.976.047c-1.083.024-2.095.063-2.229.087-.245.04-.261.055-.261.371a2.287,2.287,0,0,1-.055.522l-.047.19-1.668-.055c-.917-.024-2.387-.071-3.265-.095l-1.6-.055L61.3-645.534c-.632-1.146-1.146-2.126-1.146-2.174s.126-.5.285-.988c.253-.767.316-.9.458-.9.4-.008.379-.127-.087-.538a1.764,1.764,0,0,0-1.13-.522c-.372-.063-2.15-.213-3.952-.324s-3.431-.221-3.6-.245l-.332-.04.285-1.083.277-1.083-1.02-4.039-1.02-4.04-1.423-.182c-1.992-.245-1.834-.174-2.119-.862l-.245-.577.206-.371c.182-.324.19-.38.095-.53-.111-.166-.1-.174.458-.308a3.176,3.176,0,0,0,.625-.19c.119-.111-.032-.53-.245-.68s-.292-.158-1.494-.095a4.152,4.152,0,0,1-1.391-.024,4.777,4.777,0,0,1-.324-1.628c.024-.071.158-.111.364-.111.277,0,.316-.024.316-.19,0-.2-.166-.285-.593-.285-.553-.008-.783-.237-.443-.451.174-.111.261-.656.19-1.17-.04-.308-.071-.356-.229-.356h-.19v-3.107c0-2.917-.008-3.122-.142-3.241a.518.518,0,0,0-.2-.134A4.985,4.985,0,0,0,43.477-674.949ZM28.972-652.53l1.186.214-.016.316c-.071,1.123-.348,4.893-.387,5.249-.055.435-.055.419-.427-1.146a15,15,0,0,0-1.059-3.178c-.372-.885-.68-1.62-.68-1.644C27.588-652.783,27.707-652.767,28.972-652.53Zm6.68.4a3.019,3.019,0,0,1-.569,1.542,2.044,2.044,0,0,0-.34.6,2.777,2.777,0,0,0,.624.229c.427.126.609.221.64.332a2.582,2.582,0,0,1-.2.893l-.245.743-.411.047c-.229.024-.624.063-.893.095l-.482.047-.585,1.178c-.561,1.138-.593,1.178-.862,1.225-.15.024-.34.063-.411.079-.166.047-.158.055-.419-3.565-.111-1.526-.213-2.956-.245-3.186l-.04-.411H33.43C35.572-652.285,35.651-652.277,35.651-652.135Z" transform="translate(0)" fill="#e1e1e6"/>
    <text id="WILLIAM_GOMES_" data-name="WILLIAM
    GOMES
" transform="translate(64.126 -674.203)" fill="#e1e1e6" font-size="36" font-family="NowAlt-Thin, Now Alt" font-weight="200"><tspan x="5.995" y="33">WILLIAM</tspan><tspan font-size="29"><tspan x="1.955" y="52" xml:space="preserve">    GOMES</tspan><tspan x="77.5" y="71"></tspan></tspan></text>
  </g>
</svg>
